#!OML:ASF H:\Terrain\Patient Classification 1\Takeo\Monday\TakeoMonday.ASF
:FULLY-SPECIFIED
:DEGREES
48
root 10.2954 16.8207 -29.8643 -2.2513 0.0561604 1.75254
lowerback 9.41561 -1.65689 -2.19724
upperback 0.596389 -2.40817 0.584759
thorax -4.5418 -1.14116 2.15926
lowerneck -4.64738 1.78657 -6.66621
upperneck -3.80714 2.71868 3.06421
head -0.542179 1.44009 2.12836
rclavicle 1.98039e-014 4.37326e-015
rhumerus -45.3284 10.4443 -89.7724
rradius 32.6777
rwrist -19.3305
rhand -29.7729 18.2316
rfingers 7.12502
rthumb -3.09815 -11.7256
lclavicle 1.98039e-014 4.37326e-015
lhumerus -32.9907 -0.399602 89.4674
lradius 53.5289
lwrist 24.0543
lhand -26.7653 17.3088
lfingers 7.12502
lthumb -0.193448 47.2884
rfemur -25.2195 0.726847 20.5587
rtibia 68.5114
rfoot -8.28862 -17.7195
rtoes -15.2736
lfemur -6.57135 -3.38302 -27.3152
ltibia 32.2423
lfoot -20.8601 9.21168
ltoes -4.84036
49
root 10.3094 16.815 -29.6465 -2.30558 0.621765 1.83259
lowerback 9.54712 -1.6759 -1.9952
upperback 0.528348 -2.42418 0.399204
thorax -4.70211 -1.15159 1.86151
lowerneck -4.06779 1.62309 -6.2174
upperneck -4.1973 2.44855 3.01438
head -0.742241 1.30008 2.02148
rclavicle 2.61029e-014 -8.54774e-015
rhumerus -46.4571 8.80633 -89.3946
rradius 32.3692
rwrist -19.0594
rhand -29.2974 18.0422
rfingers 7.12502
rthumb -2.63893 -11.9212
lclavicle 2.61029e-014 -8.54774e-015
lhumerus -32.4971 -2.50287 89.456
lradius 56.0582
lwrist 24.5709
lhand -27.4792 16.979
lfingers 7.12502
lthumb -0.882914 46.9569
rfemur -26.2716 0.364653 20.4077
rtibia 66.9282
rfoot -9.71727 -18.0587
rtoes -15.5302
lfemur -5.43584 -3.87834 -27.5929
ltibia 31.7723
lfoot -21.3033 9.38757
ltoes -4.56758
50
root 10.3235 16.8122 -29.4275 -2.42452 1.10527 1.68148
lowerback 9.59882 -1.53851 -1.42521
upperback 0.594766 -2.19515 0.0924984
thorax -4.70526 -1.05366 1.19287
lowerneck -3.83131 1.29258 -5.66089
upperneck -4.29741 1.98292 3.22403
head -0.786142 1.05792 1.98631
rclavicle 1.77415e-014 -3.37934e-015
rhumerus -47.7535 7.00265 -89.3892
rradius 32.4804
rwrist -20.1049
rhand -29.439 19.6222
rfingers 7.12502
rthumb -2.77564 -10.3395
lclavicle 1.77415e-014 -3.37934e-015
lhumerus -31.7795 -5.14932 89.3175
lradius 58.629
lwrist 25.0925
lhand -27.8528 17.354
lfingers 7.12502
lthumb -1.24371 47.3301
rfemur -27.1203 0.121679 20.5369
rtibia 65.0547
rfoot -11.2684 -18.1066
rtoes -16.3817
lfemur -4.24435 -4.04008 -27.5758
ltibia 31.2422
lfoot -21.5399 9.39616
ltoes -4.99726
51
root 10.3366 16.812 -29.203 -2.61759 1.56701 1.80726
lowerback 9.56549 -1.55737 -1.57221
upperback 0.863042 -2.22851 0.17612
thorax -4.3966 -1.07166 1.35987
lowerneck -4.28375 1.18207 -6.34697
upperneck -4.11489 1.89645 3.76195
head -0.662217 1.02471 2.29252
rclavicle 1.70085e-014 3.97569e-015
rhumerus -49.0849 6.75504 -89.3764
rradius 33.2987
rwrist -21.9613
rhand -30.0391 20.5688
rfingers 7.12502
rthumb -3.35518 -9.38458
lclavicle 1.70085e-014 3.97569e-015
lhumerus -30.618 -6.62514 89.4858
lradius 60.9795
lwrist 25.4675
lhand -27.4021 17.6053
lfingers 7.12502
lthumb -0.808488 47.5835
rfemur -27.7554 -0.120543 20.3148
rtibia 62.9702
rfoot -12.1149 -17.8859
rtoes -16.903
lfemur -2.90947 -4.01661 -27.8331
ltibia 30.6789
lfoot -21.7776 9.17091
ltoes -5.19958
52
root 10.3435 16.7933 -28.9879 -2.7213 2.00959 1.94465
lowerback 9.68619 -1.72027 -1.9797
upperback 1.00954 -2.47401 0.496
thorax -4.27138 -1.18609 1.95351
lowerneck -4.30102 1.2457 -7.11255
upperneck -4.4515 2.01777 3.89535
head -0.784762 1.1 2.4786
rclavicle -1.59028e-015 2.78299e-015
rhumerus -50.0995 6.85673 -88.9647
rradius 33.5869
rwrist -22.4764
rhand -31.067 18.9929
rfingers 7.12502
rthumb -4.34783 -10.9425
lclavicle -1.59028e-015 2.78299e-015
lhumerus -29.5589 -7.21867 89.675
lradius 63.2487
lwrist 25.7039
lhand -26.0519 18.6097
lfingers 7.12502
lthumb 0.495654 48.5888
rfemur -28.4924 -0.275131 20.0609
rtibia 60.7704
rfoot -12.5118 -17.5926
rtoes -16.4613
lfemur -1.55769 -4.12783 -28.0509
ltibia 29.9271
lfoot -22.1305 8.67345
ltoes -4.12892
53
root 10.3454 16.7733 -28.7789 -2.70227 2.32509 1.69121
lowerback 9.87821 -1.73081 -1.71805
upperback 0.965879 -2.46065 0.552984
thorax -4.43313 -1.1807 1.8727
lowerneck -3.77084 1.18188 -6.82035
upperneck -5.09231 1.89005 3.72812
head -1.06672 1.03524 2.36436
rclavicle -3.50855e-014 1.59028e-014
rhumerus -51.0368 5.8474 -88.5649
rradius 33.3603
rwrist -21.7299
rhand -31.8388 15.9262
rfingers 7.12502
rthumb -5.09308 -13.9926
lclavicle -3.50855e-014 1.59028e-014
lhumerus -28.7968 -8.42768 89.4169
lradius 65.5264
lwrist 25.8514
lhand -27.656 17.5522
lfingers 7.12502
lthumb -1.05366 47.5293
rfemur -29.353 -0.149202 20.263
rtibia 58.4203
rfoot -12.7835 -17.3284
rtoes -15.3939
lfemur -0.304909 -4.41654 -27.8115
ltibia 29.0064
lfoot -22.4684 8.21624
ltoes -2.20884
54
root 10.3528 16.7661 -28.5583 -2.78443 2.63806 1.95181
lowerback 9.89288 -1.65663 -1.83265
upperback 1.08732 -2.38439 0.321876
thorax -4.32313 -1.1451 1.68438
lowerneck -3.35697 1.06987 -6.0984
upperneck -5.70763 1.69408 3.44554
head -1.31 0.929383 2.13715
rclavicle 2.18912e-014 -5.96354e-016
rhumerus -51.8861 4.57208 -88.2316
rradius 33.2445
rwrist -20.8727
rhand -31.5355 15.1094
rfingers 7.12502
rthumb -4.80019 -14.8163
lclavicle 2.18912e-014 -5.96354e-016
lhumerus -27.8617 -9.98845 88.9378
lradius 67.7105
lwrist 26.0396
lhand -27.0654 16.3508
lfingers 7.12502
lthumb -0.483207 46.33
rfemur -29.9503 -0.0552244 19.7987
rtibia 55.9321
rfoot -13.1874 -16.8534
rtoes -14.5136
lfemur 1.12485 -4.59267 -28.1679
ltibia 28.03
lfoot -22.6202 8.09101
ltoes -1.63745
55
root 10.357 16.7449 -28.3413 -2.81367 3.01238 2.48949
lowerback 9.95899 -1.68699 -2.4643
upperback 1.25834 -2.49379 0.289931
thorax -4.15148 -1.1931 2.01839
lowerneck -3.71318 1.00091 -6.07047
upperneck -5.86546 1.61692 3.25944
head -1.29222 0.896497 2.07219
rclavicle -1.37907e-014 -1.23246e-014
rhumerus -52.4774 3.96714 -87.7395
rradius 32.963
rwrist -20.482
rhand -31.0425 16.3581
rfingers 7.12502
rthumb -4.32421 -13.5778
lclavicle -1.37907e-014 -1.23246e-014
lhumerus -26.6739 -10.9281 88.6294
lradius 69.7491
lwrist 26.2526
lhand -25.9399 15.0946
lfingers 7.12502
lthumb 0.603782 45.0735
rfemur -30.5255 -0.0253125 19.0338
rtibia 53.28
rfoot -13.5225 -16.408
rtoes -14.4175
lfemur 2.48386 -4.44385 -28.721
ltibia 26.9919
lfoot -22.4404 7.83407
ltoes -2.53582
56
root 10.3558 16.7195 -28.1258 -2.75423 3.45003 2.85424
lowerback 10.1386 -1.73499 -2.91661
upperback 1.24047 -2.61071 0.322243
thorax -4.24233 -1.24142 2.32867
lowerneck -3.88743 0.924069 -6.42326
upperneck -5.91425 1.53777 3.33732
head -1.27948 0.86536 2.16301
rclavicle -4.50993e-014 -3.18055e-015
rhumerus -53.3135 3.4063 -87.3299
rradius 32.6957
rwrist -20.3412
rhand -30.9644 17.0122
rfingers 7.12502
rthumb -4.2488 -12.9251
lclavicle -4.50993e-014 -3.18055e-015
lhumerus -25.6725 -11.7837 88.3544
lradius 71.6001
lwrist 26.3201
lhand -25.4928 14.0462
lfingers 7.12502
lthumb 1.03558 44.0234
rfemur -31.0885 -0.0201836 18.4994
rtibia 50.4281
rfoot -13.7628 -16.0445
rtoes -15.8515
lfemur 3.74414 -4.29572 -29.014
ltibia 25.9152
lfoot -22.2255 7.42593
ltoes -3.53294
57
root 10.3563 16.7032 -27.9031 -2.67881 3.93879 3.38199
lowerback 10.1485 -1.79149 -3.43253
upperback 1.24655 -2.74896 0.188802
thorax -4.2156 -1.30286 2.49749
lowerneck -3.55784 0.897538 -6.60188
upperneck -6.36713 1.49937 3.55013
head -1.48531 0.850424 2.2673
rclavicle 2.47984e-014 -7.95139e-015
rhumerus -54.2107 2.80901 -87.189
rradius 32.5331
rwrist -20.1845
rhand -30.4979 17.3078
rfingers 7.12502
rthumb -3.79829 -12.6381
lclavicle 2.47984e-014 -7.95139e-015
lhumerus -24.6632 -12.6988 87.9633
lradius 73.3404
lwrist 26.5879
lhand -25.6254 13.183
lfingers 7.12502
lthumb 0.907531 43.1608
rfemur -31.5004 -0.0603917 17.719
rtibia 47.4153
rfoot -14.2732 -15.5198
rtoes -18.0158
lfemur 5.02029 -4.2752 -29.4922
ltibia 24.9497
lfoot -22.2623 6.73604
ltoes -2.74496
58
root 10.3566 16.6897 -27.6821 -2.5606 4.37549 3.73183
lowerback 10.0545 -1.91873 -3.8707
upperback 1.39308 -2.95829 0.194147
thorax -3.97374 -1.40744 2.76718
lowerneck -3.72297 0.894401 -6.90692
upperneck -6.79811 1.52755 3.76009
head -1.60493 0.875332 2.39595
rclavicle 1.56046e-014 5.96354e-015
rhumerus -54.6573 2.60978 -87.0679
rradius 32.1939
rwrist -20.0791
rhand -30.2264 17.0469
rfingers 7.12502
rthumb -3.53605 -12.9035
lclavicle 1.56046e-014 5.96354e-015
lhumerus -23.3386 -13.1297 87.5794
lradius 74.9257
lwrist 26.762
lhand -25.969 12.29
lfingers 7.12502
lthumb 0.57571 42.2689
rfemur -31.8522 0.0188922 17.1277
rtibia 44.2719
rfoot -14.6562 -15.1838
rtoes -20.7963
lfemur 6.2185 -4.18488 -29.748
ltibia 23.9249
lfoot -22.2481 6.12883
ltoes -2.63698
59
root 10.3547 16.68 -27.4628 -2.48312 4.71623 3.76434
lowerback 10.041 -1.96897 -3.85712
upperback 1.50773 -3.02056 0.178881
thorax -3.84346 -1.44332 2.74748
lowerneck -4.09962 0.737521 -6.71989
upperneck -6.92124 1.3305 3.55733
head -1.56254 0.779526 2.29506
rclavicle -2.43511e-015 -9.54166e-015
rhumerus -55.1451 2.11505 -87.0077
rradius 31.8421
rwrist -20.0543
rhand -30.6116 16.7589
rfingers 7.12502
rthumb -3.90807 -13.185
lclavicle -2.43511e-015 -9.54166e-015
lhumerus -22.1634 -13.7855 87.0208
lradius 76.458
lwrist 26.6503
lhand -26.4179 11.8592
lfingers 7.12502
lthumb 0.142106 41.8389
rfemur -32.0993 0.381906 16.8418
rtibia 41.1395
rfoot -14.8332 -15.0911
rtoes -22.4788
lfemur 7.46766 -3.86696 -29.5968
ltibia 22.6729
lfoot -21.9956 5.88312
ltoes -5.07549
60
root 10.3549 16.667 -27.2345 -2.41722 5.09751 3.90433
lowerback 9.89315 -2.01078 -3.86199
upperback 1.6125 -3.07145 0.0851639
thorax -3.65328 -1.47502 2.64895
lowerneck -4.64305 0.587915 -6.79559
upperneck -6.61897 1.17097 3.66231
head -1.36364 0.701348 2.34351
rclavicle 1.66482e-014 1.19271e-015
rhumerus -55.6474 1.49279 -86.9523
rradius 31.4055
rwrist -19.8881
rhand -30.6903 17.021
rfingers 7.12502
rthumb -3.98408 -12.9215
lclavicle 1.66482e-014 1.19271e-015
lhumerus -21.1282 -14.549 86.3881
lradius 77.985
lwrist 26.7834
lhand -26.535 11.7409
lfingers 7.12502
lthumb 0.0289981 41.7206
rfemur -32.2306 0.912954 16.3075
rtibia 38.1029
rfoot -15.1444 -15.1711
rtoes -22.1354
lfemur 8.90108 -3.69375 -29.5795
ltibia 21.3206
lfoot -21.7344 5.34813
ltoes -6.0937
61
root 10.3564 16.6416 -26.995 -2.28995 5.41873 4.22385
lowerback 9.5337 -2.07841 -4.21906
upperback 1.74999 -3.17743 0.105157
thorax -3.28203 -1.53523 2.86058
lowerneck -5.38342 0.571133 -7.70948
upperneck -6.17334 1.25839 4.34311
head -1.11453 0.761071 2.74459
rclavicle -1.13804e-014 -2.46493e-014
rhumerus -55.8733 1.33473 -86.796
rradius 30.7664
rwrist -19.7507
rhand -30.4809 17.0104
rfingers 7.12502
rthumb -3.78182 -12.9358
lclavicle -1.13804e-014 -2.46493e-014
lhumerus -20.1109 -14.886 85.9865
lradius 79.4458
lwrist 26.9298
lhand -26.4272 11.8545
lfingers 7.12502
lthumb 0.133152 41.8342
rfemur -32.3925 1.44736 15.5958
rtibia 35.2576
rfoot -15.4116 -15.5306
rtoes -20.8843
lfemur 10.4843 -3.64788 -29.7837
ltibia 19.7996
lfoot -21.443 4.5674
ltoes -5.27197
